<svg xmlns="http://www.w3.org/2000/svg">
    <defs>
        <symbol id="icon-menu" viewBox="0 0 72 72">
            <path d="M56 48c2.209 0 4 1.791 4 4 0 2.209-1.791 4-4 4-1.202 0-38.798 0-40 0-2.209 0-4-1.791-4-4 0-2.209 1.791-4 4-4C17.202 48 54.798 48 56 48zM56 32c2.209 0 4 1.791 4 4 0 2.209-1.791 4-4 4-1.202 0-38.798 0-40 0-2.209 0-4-1.791-4-4 0-2.209 1.791-4 4-4C17.202 32 54.798 32 56 32zM56 16c2.209 0 4 1.791 4 4 0 2.209-1.791 4-4 4-1.202 0-38.798 0-40 0-2.209 0-4-1.791-4-4 0-2.209 1.791-4 4-4C17.202 16 54.798 16 56 16z"/>
        </symbol>

        <symbol id="icon-edit" viewBox="0 0 490 490">
			<path d="M229.9,145.379l-47.5,47.5c-17.5,17.5-35.1,35-52.5,52.7c-4.1,4.2-7.2,9.8-8.4,15.3c-6.3,28.9-12.4,57.8-18.5,86.7
				l-3.4,16c-1.6,7.8,0.5,15.6,5.8,20.9c4.1,4.1,9.8,6.4,15.8,6.4c1.7,0,3.4-0.2,5.1-0.5l17.6-3.7c28-5.9,56.1-11.9,84.1-17.7
				c6.5-1.4,12-4.3,16.7-9c78.6-78.7,157.2-157.3,235.8-235.8c5.8-5.8,9-12.7,9.8-21.2c0.1-1.4,0-2.8-0.3-4.1c-0.5-2-0.9-4.1-1.4-6.1
				c-1.1-5.1-2.3-10.9-4.7-16.5l0,0c-14.7-33.6-39.1-57.6-72.5-71.1c-6.7-2.7-13.8-3.6-20-4.4l-1.7-0.2c-9-1.1-17.2,1.9-24.3,9.1
				C320.4,54.879,275.1,100.179,229.9,145.379z M386.4,24.679c0.2,0,0.3,0,0.5,0l1.7,0.2c5.2,0.6,10,1.2,13.8,2.8
				c27.2,11,47.2,30.6,59.3,58.2c1.4,3.2,2.3,7.3,3.2,11.6c0.3,1.6,0.7,3.2,1,4.8c-0.4,1.8-1.1,3-2.5,4.3
				c-78.7,78.5-157.3,157.2-235.9,235.8c-1.3,1.3-2.5,1.9-4.3,2.3c-28.1,5.9-56.1,11.8-84.2,17.7l-14.8,3.1l2.8-13.1
				c6.1-28.8,12.2-57.7,18.4-86.5c0.2-0.9,1-2.3,1.9-3.3c17.4-17.6,34.8-35.1,52.3-52.5l47.5-47.5c45.3-45.3,90.6-90.6,135.8-136
				C384.8,24.979,385.7,24.679,386.4,24.679z"/>
			<path d="M38.9,109.379h174.6c6.8,0,12.3-5.5,12.3-12.3s-5.5-12.3-12.3-12.3H38.9c-21.5,0-38.9,17.5-38.9,38.9v327.4
				c0,21.5,17.5,38.9,38.9,38.9h327.3c21.5,0,38.9-17.5,38.9-38.9v-167.5c0-6.8-5.5-12.3-12.3-12.3s-12.3,5.5-12.3,12.3v167.5
				c0,7.9-6.5,14.4-14.4,14.4H38.9c-7.9,0-14.4-6.5-14.4-14.4v-327.3C24.5,115.879,31,109.379,38.9,109.379z"/>
        </symbol>

		<symbol id="icon-question" viewBox="0 0 32 32">
			<path d="M23.424,10.827c0,3.956-4.533,5.478-5.507,6.907c-0.729,1.063-0.485,2.557-2.495,2.557c-1.309,0-1.946-1.064-1.946-2.039
				c0-3.623,5.323-4.442,5.323-7.425c0-1.643-1.096-2.616-2.921-2.616c-3.895,0-2.373,4.016-5.323,4.016
				c-1.066,0-1.979-0.639-1.979-1.855c0-2.983,3.407-5.628,7.119-5.628C19.59,4.742,23.424,6.536,23.424,10.827z M15.545,22.268
				c-1.369,0-2.496,1.125-2.496,2.496c0,1.369,1.127,2.494,2.496,2.494c1.367,0,2.494-1.125,2.494-2.494
				C18.039,23.393,16.912,22.268,15.545,22.268z M32,16c0,8.822-7.178,16-16,16C7.178,32,0,24.822,0,16S7.178,0,16,0
				C24.822,0,32,7.177,32,16z M29,16c0-7.168-5.832-13-13-13S3,8.832,3,16s5.832,13,13,13S29,23.168,29,16z"/>
		</symbol>

		<symbol id="icon-switch-off" viewBox="0 0 490 490">
			<path d="M350.2,384.8c77.2,0,139.8-62.6,139.8-139.8s-62.6-139.8-139.8-139.8H139.8C62.6,105.2,0,167.8,0,245
			s62.6,139.8,139.8,139.8H350.2z M48,245c0-51.7,41.9-93.7,93.7-93.7c51.7,0,93.7,41.9,93.7,93.7s-41.9,93.7-93.7,93.7
			C90,338.7,48,296.7,48,245z"/>
		</symbol>

		<symbol id="icon-switch-on" viewBox="0 0 512 512">
			<path d="M372.364,116.364H139.636C62.641,116.364,0,179.005,0,256s62.641,139.636,139.636,139.636h232.727
			C449.358,395.636,512,332.995,512,256S449.358,116.364,372.364,116.364z M372.364,349.091c-51.33,0-93.091-41.761-93.091-93.091
			s41.761-93.091,93.091-93.091S465.455,204.67,465.455,256S423.694,349.091,372.364,349.091z"/>
		</symbol>

		<symbol id="icon-expand" viewBox="0 0 490 490">
			<path d="M476.95,0H12.35c-6.8,0-12.2,5.5-12.2,12.2V235c0,6.8,5.5,12.2,12.2,12.2s12.3-5.5,12.3-12.2V24.5h440.2v440.2h-211.9
			c-6.8,0-12.3,5.5-12.3,12.3s5.5,12.3,12.3,12.3h224c6.8,0,12.3-5.5,12.3-12.3V12.3C489.25,5.5,483.75,0,476.95,0z"/>
			<path d="M0.05,476.9c0,6.8,5.5,12.3,12.2,12.3h170.4c6.8,0,12.3-5.5,12.3-12.3V306.6c0-6.8-5.5-12.3-12.3-12.3H12.35
			c-6.8,0-12.2,5.5-12.2,12.3v170.3H0.05z M24.55,318.8h145.9v145.9H24.55V318.8z"/>
			<path d="M222.95,266.3c2.4,2.4,5.5,3.6,8.7,3.6s6.3-1.2,8.7-3.6l138.6-138.7v79.9c0,6.8,5.5,12.3,12.3,12.3s12.3-5.5,12.3-12.3
			V98.1c0-6.8-5.5-12.3-12.3-12.3h-109.5c-6.8,0-12.3,5.5-12.3,12.3s5.5,12.3,12.3,12.3h79.9L222.95,249
			C218.15,253.8,218.15,261.5,222.95,266.3z"/>
		</symbol>

		<symbol id="icon-up" viewBox="0 0 24 24">
			<polyline fill="none" stroke="#000" stroke-width="2" points="7.086 1.174 17.086 11.174 7.086 21.174" transform="rotate(-89 12.086 11.174)"/>
		</symbol>

		<symbol id="icon-down" viewBox="0 0 24 24">
			<polyline fill="none" stroke="#000" stroke-width="2" points="7.086 3.174 17.086 13.174 7.086 23.174" transform="scale(1 -1) rotate(-89 -1.32 0)"/>
		</symbol>

		<symbol id="icon-equal" viewBox="0 0 36 36">
			<rect y="11" width="36" height="4"/>
			<rect y="21" width="36" height="4"/>
		</symbol>

		<symbol id="icon-bad-weather" viewBox="0 0 96 96">
			<path d="M66,40c-0.507,0-1.112,0.079-1.688,0.184C62.217,33.012,55.663,28,48,28s-14.218,5.012-16.311,12.184
			C31.112,40.079,30.507,40,30,40c-6.065,0-11,4.935-11,11s4.935,11,11,11c1.104,0,2-0.896,2-2s-0.896-2-2-2c-3.86,0-7-3.141-7-7
			s3.14-7,7-7c0.277,0,0.723,0.068,1.193,0.162V46c0,1.104,0.896,2,2,2s2-0.896,2-2v-3.221C36.267,36.527,41.63,32,48,32
			s11.732,4.527,12.807,10.779V46c0,1.104,0.896,2,2,2s2-0.896,2-2v-1.838C65.277,44.068,65.722,44,66,44c3.859,0,7,3.141,7,7
			s-3.141,7-7,7c-1.104,0-2,0.896-2,2s0.896,2,2,2c6.065,0,11-4.935,11-11S72.065,40,66,40z"/>
			<path d="M49.485,52.06c-1.073-0.27-2.158,0.384-2.426,1.455l-6,24c-0.268,1.072,0.384,2.157,1.455,2.426
			C42.677,79.981,42.84,80,43.001,80c0.896,0,1.711-0.606,1.939-1.515l6-24C51.208,53.413,50.557,52.328,49.485,52.06z"/>
			<path d="M57.484,58.06c-1.072-0.271-2.157,0.384-2.425,1.455l-3,12c-0.268,1.072,0.384,2.158,1.456,2.426
			c0.163,0.041,0.326,0.06,0.486,0.06c0.896,0,1.712-0.606,1.939-1.515l2.999-12C59.208,59.413,58.556,58.327,57.484,58.06z"/>
			<path d="M38.484,58.06c-1.069-0.271-2.157,0.384-2.425,1.455l-3,12c-0.268,1.072,0.384,2.158,1.456,2.426
			c0.163,0.041,0.326,0.06,0.486,0.06c0.896,0,1.712-0.606,1.939-1.515l3-12C40.208,59.413,39.556,58.327,38.484,58.06z"/>
		</symbol>

		<symbol id="icon-sunny-weather" viewBox="0 0 96 96">
			<path d="M62.142,35.858c0.512,0,1.024-0.195,1.414-0.586l2.829-2.829c0.781-0.781,0.781-2.047,0-2.828
			c-0.781-0.781-2.048-0.781-2.828,0l-2.829,2.829c-0.781,0.781-0.781,2.047,0,2.828C61.118,35.663,61.63,35.858,62.142,35.858z
			M30,48c0-1.104-0.896-2-2-2h-4c-1.104,0-2,0.896-2,2s0.896,2,2,2h4C29.104,50,30,49.104,30,48z M32.444,60.728l-2.829,2.829
			c-0.781,0.781-0.781,2.047,0,2.828c0.39,0.391,0.902,0.586,1.414,0.586c0.512,0,1.024-0.195,1.414-0.586l2.829-2.829
			c0.781-0.781,0.781-2.047,0-2.828C34.492,59.947,33.224,59.947,32.444,60.728z M32.444,35.272c0.39,0.391,0.902,0.586,1.414,0.586
			s1.024-0.195,1.414-0.586c0.781-0.781,0.781-2.047,0-2.828l-2.829-2.829c-0.78-0.781-2.048-0.781-2.828,0
			c-0.781,0.781-0.781,2.047,0,2.828L32.444,35.272z M48,30c1.104,0,2-0.896,2-2v-4c0-1.104-0.896-2-2-2s-2,0.896-2,2v4
			C46,29.104,46.896,30,48,30z M72,46h-4c-1.104,0-2,0.896-2,2s0.896,2,2,2h4c1.104,0,2-0.896,2-2S73.104,46,72,46z M63.556,60.728
			c-0.78-0.781-2.048-0.781-2.828,0c-0.781,0.781-0.781,2.047,0,2.828l2.829,2.829c0.39,0.391,0.902,0.586,1.414,0.586
			c0.512,0,1.023-0.195,1.414-0.586c0.781-0.781,0.781-2.047,0-2.828L63.556,60.728z M48,66c-1.104,0-2,0.896-2,2v4
			c0,1.104,0.896,2,2,2s2-0.896,2-2v-4C50,66.896,49.104,66,48,66z M48,34c-7.72,0-14,6.28-14,14s6.28,14,14,14s14-6.28,14-14
			S55.72,34,48,34z M48,58c-5.514,0-10-4.486-10-10s4.486-10,10-10s10,4.486,10,10S53.514,58,48,58z"/>
		</symbol>

		<symbol id="icon-cloud-weather" viewBox="0 0 96 96">
			<path d="M72.556,42.187C73.501,40.271,74,38.166,74,36c0-7.72-6.28-14-14-14c-4.601,0-8.895,2.281-11.496,6.021
			C48.336,28.016,48.17,28,48.001,28c-7.664,0-14.219,5.012-16.311,12.184C31.113,40.079,30.508,40,30.001,40
			c-6.066,0-11,4.935-11,11s4.934,11,11,11h36c6.065,0,11-4.935,11-11C77.001,47.392,75.247,44.194,72.556,42.187z M60,26
			c5.514,0,10,4.486,10,10c0,1.548-0.36,3.05-1.036,4.417C68.019,40.152,67.028,40,66.001,40c-0.508,0-1.112,0.079-1.69,0.184
			c-1.608-5.511-5.854-9.735-11.21-11.401C54.939,27.03,57.397,26,60,26z M66.001,58h-36c-3.859,0-7-3.141-7-7s3.141-7,7-7
			c0.277,0,0.723,0.068,1.193,0.162V46c0,1.104,0.896,2,2,2c1.104,0,2-0.896,2-2v-3.219C36.267,36.528,41.63,32,48.001,32
			c6.372,0,11.736,4.53,12.807,10.786V46c0,1.104,0.896,2,2,2s2-0.896,2-2v-1.837C65.279,44.069,65.727,44,66.001,44
			c3.859,0,7,3.141,7,7S69.86,58,66.001,58z"/>
			<path d="M60,18c1.104,0,2-0.896,2-2v-4c0-1.104-0.896-2-2-2c-1.105,0-2,0.896-2,2v4C58,17.104,58.895,18,60,18z"/>
			<path d="M84,34h-4c-1.105,0-2,0.896-2,2s0.895,2,2,2h4c1.104,0,2-0.896,2-2S85.104,34,84,34z"/>
			<path d="M74.143,23.857c0.512,0,1.023-0.195,1.414-0.586l2.828-2.828c0.781-0.781,0.781-2.047,0-2.828
			c-0.781-0.781-2.047-0.781-2.828,0l-2.828,2.828c-0.781,0.781-0.781,2.047,0,2.828C73.119,23.662,73.631,23.857,74.143,23.857z"/>
			<path d="M44.443,23.271c0.391,0.391,0.902,0.586,1.414,0.586c0.512,0,1.023-0.195,1.414-0.586c0.781-0.781,0.781-2.047,0-2.828
			l-2.828-2.828c-0.781-0.781-2.047-0.781-2.828,0c-0.781,0.781-0.781,2.047,0,2.828L44.443,23.271z"/>
		</symbol>
    </defs>
</svg>