<svg xmlns="http://www.w3.org/2000/svg">
    <defs>
        <symbol id="icon-menu" viewBox="0 0 72 72">
            <path d="M56 48c2.209 0 4 1.791 4 4 0 2.209-1.791 4-4 4-1.202 0-38.798 0-40 0-2.209 0-4-1.791-4-4 0-2.209 1.791-4 4-4C17.202 48 54.798 48 56 48zM56 32c2.209 0 4 1.791 4 4 0 2.209-1.791 4-4 4-1.202 0-38.798 0-40 0-2.209 0-4-1.791-4-4 0-2.209 1.791-4 4-4C17.202 32 54.798 32 56 32zM56 16c2.209 0 4 1.791 4 4 0 2.209-1.791 4-4 4-1.202 0-38.798 0-40 0-2.209 0-4-1.791-4-4 0-2.209 1.791-4 4-4C17.202 16 54.798 16 56 16z"/>
        </symbol>

        <symbol id="icon-edit" viewBox="0 0 490 490">
			<path d="M229.9,145.379l-47.5,47.5c-17.5,17.5-35.1,35-52.5,52.7c-4.1,4.2-7.2,9.8-8.4,15.3c-6.3,28.9-12.4,57.8-18.5,86.7
				l-3.4,16c-1.6,7.8,0.5,15.6,5.8,20.9c4.1,4.1,9.8,6.4,15.8,6.4c1.7,0,3.4-0.2,5.1-0.5l17.6-3.7c28-5.9,56.1-11.9,84.1-17.7
				c6.5-1.4,12-4.3,16.7-9c78.6-78.7,157.2-157.3,235.8-235.8c5.8-5.8,9-12.7,9.8-21.2c0.1-1.4,0-2.8-0.3-4.1c-0.5-2-0.9-4.1-1.4-6.1
				c-1.1-5.1-2.3-10.9-4.7-16.5l0,0c-14.7-33.6-39.1-57.6-72.5-71.1c-6.7-2.7-13.8-3.6-20-4.4l-1.7-0.2c-9-1.1-17.2,1.9-24.3,9.1
				C320.4,54.879,275.1,100.179,229.9,145.379z M386.4,24.679c0.2,0,0.3,0,0.5,0l1.7,0.2c5.2,0.6,10,1.2,13.8,2.8
				c27.2,11,47.2,30.6,59.3,58.2c1.4,3.2,2.3,7.3,3.2,11.6c0.3,1.6,0.7,3.2,1,4.8c-0.4,1.8-1.1,3-2.5,4.3
				c-78.7,78.5-157.3,157.2-235.9,235.8c-1.3,1.3-2.5,1.9-4.3,2.3c-28.1,5.9-56.1,11.8-84.2,17.7l-14.8,3.1l2.8-13.1
				c6.1-28.8,12.2-57.7,18.4-86.5c0.2-0.9,1-2.3,1.9-3.3c17.4-17.6,34.8-35.1,52.3-52.5l47.5-47.5c45.3-45.3,90.6-90.6,135.8-136
				C384.8,24.979,385.7,24.679,386.4,24.679z"/>
			<path d="M38.9,109.379h174.6c6.8,0,12.3-5.5,12.3-12.3s-5.5-12.3-12.3-12.3H38.9c-21.5,0-38.9,17.5-38.9,38.9v327.4
				c0,21.5,17.5,38.9,38.9,38.9h327.3c21.5,0,38.9-17.5,38.9-38.9v-167.5c0-6.8-5.5-12.3-12.3-12.3s-12.3,5.5-12.3,12.3v167.5
				c0,7.9-6.5,14.4-14.4,14.4H38.9c-7.9,0-14.4-6.5-14.4-14.4v-327.3C24.5,115.879,31,109.379,38.9,109.379z"/>
        </symbol>

		<symbol id="icon-question" viewBox="0 0 32 32">
			<path d="M23.424,10.827c0,3.956-4.533,5.478-5.507,6.907c-0.729,1.063-0.485,2.557-2.495,2.557c-1.309,0-1.946-1.064-1.946-2.039
				c0-3.623,5.323-4.442,5.323-7.425c0-1.643-1.096-2.616-2.921-2.616c-3.895,0-2.373,4.016-5.323,4.016
				c-1.066,0-1.979-0.639-1.979-1.855c0-2.983,3.407-5.628,7.119-5.628C19.59,4.742,23.424,6.536,23.424,10.827z M15.545,22.268
				c-1.369,0-2.496,1.125-2.496,2.496c0,1.369,1.127,2.494,2.496,2.494c1.367,0,2.494-1.125,2.494-2.494
				C18.039,23.393,16.912,22.268,15.545,22.268z M32,16c0,8.822-7.178,16-16,16C7.178,32,0,24.822,0,16S7.178,0,16,0
				C24.822,0,32,7.177,32,16z M29,16c0-7.168-5.832-13-13-13S3,8.832,3,16s5.832,13,13,13S29,23.168,29,16z"/>
		</symbol>
    </defs>
</svg>